<svg xmlns="http://www.w3.org/2000/svg" viewBox="0 0 2500 2500"><defs><style>.cls-1{fill:#005d72;}</style></defs><g id="Layer_9" data-name="Layer 9"><rect class="cls-1" x="1601.95" y="1431.07" width="120.23" height="16.87" rx="6.42"/><rect class="cls-1" x="1601.95" y="1491.45" width="120.23" height="16.87" rx="6.42"/><rect class="cls-1" x="1601.95" y="1551.84" width="120.23" height="16.87" rx="6.42"/><rect class="cls-1" x="1456.11" y="1430.86" width="120.23" height="16.87" rx="6.42"/><rect class="cls-1" x="1456.11" y="1491.24" width="120.23" height="16.87" rx="6.42"/><rect class="cls-1" x="1456.11" y="1551.62" width="120.23" height="16.87" rx="6.42"/><path class="cls-1" d="M1420.3,1437.09v125.6a5.81,5.81,0,0,1-5.58,6h-2.42a5.8,5.8,0,0,1-5.57-6v-55.47h-86v55.47a5.8,5.8,0,0,1-5.57,6h-2.42a5.81,5.81,0,0,1-5.58-6v-125.6a5.82,5.82,0,0,1,5.58-6h2.42a5.81,5.81,0,0,1,5.57,6v55.48h86v-55.48a5.81,5.81,0,0,1,5.57-6h2.42A5.82,5.82,0,0,1,1420.3,1437.09Z"/><rect class="cls-1" x="1091.27" y="1493.11" width="137.64" height="13.57" rx="5.58" transform="translate(2659.98 339.8) rotate(90)"/><path class="cls-1" d="M1089.23,1431.52c15.11.57,26.93,14.32,26.93,30.64v99c0,3.87-2.72,7.23-6.3,7.5a6.45,6.45,0,0,1-5.28-2.13,7.57,7.57,0,0,1-2-5.17V1470c0-12.81-9.62-23.2-21.49-23.2h-43c-11.87,0-21.49,10.39-21.49,23.2v91.16c0,3.87-2.71,7.23-6.3,7.5a6.46,6.46,0,0,1-5.28-2.13,7.57,7.57,0,0,1-2-5.17v-99.23c0-16.32,11.82-30.07,26.93-30.64.33,0,.68,0,1,0h57.19C1088.55,1431.5,1088.89,1431.5,1089.23,1431.52Z"/><path class="cls-1" d="M1267.62,1438.4V1465c0,14.65-6.41,27.73-18.61,34.15,0,0,11,5.22,15.5,13.17a25.77,25.77,0,0,1,3.11,12.47v36.44c0,3.87-2.71,7.23-6.3,7.5a6.49,6.49,0,0,1-5.28-2.13,7.57,7.57,0,0,1-2-5.17v-32.53c0-11.95-9-21.64-20-21.64h-46.59a7.14,7.14,0,0,1-7-6.8,7.64,7.64,0,0,1,2-5.71,6.56,6.56,0,0,1,4.8-2.15h42.25c13.57,0,24.57-11.87,24.57-26.52v-27.45c0-3.87,2.72-7.23,6.3-7.5a6.48,6.48,0,0,1,5.28,2.13A7.59,7.59,0,0,1,1267.62,1438.4Z"/><path class="cls-1" d="M1164.32,1047.4v252.78H885.52V1047.4c0-21-55.65-21-55.65,0v284.34H941.44v189.52c0,63.27-167.23,63.27-167.23,0v-95L829.87,1395v126.25c0,21.09,55.65,21.09,55.65,0v-158H774.21V1047.4c0-63.13,167.23-63.13,167.23,0v221.22h167.22V1047.4c0-21-55.91-21-55.91,0v189.66l-55.66-31.42V1047.4C997.09,984.27,1164.32,984.27,1164.32,1047.4Z"/><path class="cls-1" d="M1080.57,931.29l-39.27,22.27L1080.57,976l39.54-22.42Z"/><path class="cls-1" d="M1220,1300.18V1001.72l55.65-17.45v315.91Z"/><rect class="cls-1" x="1003.07" y="1333.42" width="272.55" height="41.13"/><path class="cls-1" d="M1722.18,1410.07h-34.42c-2.43-95.49-78.87-172.14-172.84-172.14s-170.41,76.65-172.84,172.14h-34.42c2.42-114.94,94.29-207.34,207.26-207.34S1719.77,1295.13,1722.18,1410.07Z"/><circle class="cls-1" cx="1392.9" cy="1080.94" r="86.25"/><path class="cls-1" d="M1722.18,1410.07h-34.42c-2.43-95.49-78.87-172.14-172.84-172.14s-170.41,76.65-172.84,172.14h-34.42c2.42-114.94,94.29-207.34,207.26-207.34S1719.77,1295.13,1722.18,1410.07Z"/><path class="cls-1" d="M1725.79,1165.34v34.88c-1.24,0-2.5,0-3.75,0-113.54,0-205.57-92-205.57-205.57,0-1.09,0-2.17,0-3.27h34.88c0,1.09,0,2.18,0,3.27a170.7,170.7,0,0,0,170.7,170.7C1723.3,1165.39,1724.55,1165.38,1725.79,1165.34Z"/><circle class="cls-1" cx="1670.15" cy="1044.86" r="50.98"/><circle class="cls-1" cx="1515.14" cy="1341.62" r="68.45"/></g></svg>